<svg id="レイヤー_1" data-name="レイヤー 1" xmlns="http://www.w3.org/2000/svg" viewBox="0 0 89.93 21.46"><title>gnav_support</title><path d="M4.44,4.63c0,10.06-.41,12.94-2.38,16.54a8.43,8.43,0,0,0-2.06-2,10.73,10.73,0,0,0,1.49-4A62.82,62.82,0,0,0,2,5.5C2,3.74,2,3.07,1.9,2.23a23.54,23.54,0,0,0,2.4.1h5.88v-1A7.7,7.7,0,0,0,10.06,0h2.81a4.84,4.84,0,0,0-.12,1.34v1H18.7a18.45,18.45,0,0,0,2.71-.15V4.75a22.44,22.44,0,0,0-2.71-.12H11.09a30.07,30.07,0,0,1,5.76,3.82l-1.78,2a20.65,20.65,0,0,0-5.85-4.2L11,4.63ZM4.27,18.17A14.54,14.54,0,0,0,5.5,14.38,30.2,30.2,0,0,0,6,9.94l2.38.6a29.52,29.52,0,0,1-1.8,9.09Zm7.88-9.6A12.62,12.62,0,0,0,12,10.75V18c0,.6.19.69,1.55.69,1.83,0,1.85-.07,1.85-4.22a11.55,11.55,0,0,0,2.45.82c-.17,3.12-.38,4.27-.91,4.92s-1.44.91-3.41.91c-3.17,0-4-.36-4-1.73V10.73a11.25,11.25,0,0,0-.15-2.16ZM19.3,19.23a26,26,0,0,0-2.67-8.33l2.21-1.11a39.47,39.47,0,0,1,2.93,8.28Z"/><path d="M35.14,8.59c-.75,0-1.47,0-2,.07V6.5a10.63,10.63,0,0,0,1.75.1H35a9,9,0,0,0-1.22-2.42l2-.65A10.31,10.31,0,0,1,36.87,6l-1.35.6h3.34a10.58,10.58,0,0,0-1.15-2.78l2-.63A11.42,11.42,0,0,1,40.87,6l-1.7.62h2.64a13.82,13.82,0,0,0,1.78-3.86l2.32.6A30,30,0,0,1,44.09,6.6h.53a8.77,8.77,0,0,0,1.8-.12V8.69a19.48,19.48,0,0,0-2.21-.1h-5.9c-.05.48-.1.84-.15,1.23h6a18.72,18.72,0,0,0,2.62-.12v2.35a18.79,18.79,0,0,0-2.62-.15H37.75c-.12.46-.16.63-.28,1h4.65a12.66,12.66,0,0,0,2-.09l1.22,1.48a8.29,8.29,0,0,0-.79,1.06,15.06,15.06,0,0,1-2.28,2.43,17.64,17.64,0,0,0,4.9,1.2,18.36,18.36,0,0,0-1,2.47,18.39,18.39,0,0,1-5.81-2.23,18.56,18.56,0,0,1-5.45,2.23,8.52,8.52,0,0,0-1.1-1.92A14.94,14.94,0,0,1,32,21.22a6.62,6.62,0,0,0-1.25-1.68c-.17,1.34-.82,1.73-3.05,1.73-.27,0-.6,0-1.37-.08a8,8,0,0,0-.53-2.35,13.61,13.61,0,0,0,2,.17c.46,0,.58-.12.58-.62V13.13L27,13.54c-.24.07-.62.19-1.1.36l-.48-2.52a14.43,14.43,0,0,0,2.86-.68v-4h-1a12.46,12.46,0,0,0-1.56.1V4.32a7.75,7.75,0,0,0,1.58.12h1V2.54A16.18,16.18,0,0,0,28.18.17h2.66a15.54,15.54,0,0,0-.12,2.35V4.44h.6a9.66,9.66,0,0,0,1.2-.07V6.74c-.48,0-.72-.07-1.2-.07h-.6V9.94c.53-.2.79-.29,1.51-.6l.05,2.25-1.56.65V19a13.22,13.22,0,0,0,4.63-7.09H35a18.22,18.22,0,0,0-2.18.1V9.72a19.5,19.5,0,0,0,2.23.1h.74c.07-.56.1-.77.15-1.23ZM46.2,2a6,6,0,0,0-.62.12A88.52,88.52,0,0,1,33,3.41a5.86,5.86,0,0,0-.74-2H33c4.39,0,9.82-.65,11.55-1.4ZM34.06,19.18a16.09,16.09,0,0,0,4.22-1.39,15.33,15.33,0,0,1-2-1.92A18.36,18.36,0,0,1,34.06,19.18ZM38.14,15a16.15,16.15,0,0,0,2,1.66A8.94,8.94,0,0,0,41.83,15Z"/><path d="M60.22,6.41c-5.26.33-7.3.55-8.81,1a1.57,1.57,0,0,1-.27,0,.43.43,0,0,1-.38-.32,9.27,9.27,0,0,1-.41-2.59h.58c.77,0,1.49,0,3.79-.17,1.78-.09,3.29-.16,5.45-.24A15.2,15.2,0,0,0,59.91.53,13.37,13.37,0,0,1,63,.79c.14.07.21.19.21.43a.81.81,0,0,1-.07.27A6.92,6.92,0,0,0,62.83,4c3.51-.09,4-.09,6.44-.09.64,0,.74,0,.81.07s.15.45.15,1.27c0,1.1,0,1.22-.34,1.22h-.1c-1-.09-3.6-.19-5.28-.19l-1.75,0,0,3.93a5.69,5.69,0,0,1,.48,2.62,8.13,8.13,0,0,1-3.43,7,6.93,6.93,0,0,1-2.62,1.34.66.66,0,0,1-.52-.26,6.65,6.65,0,0,0-2-1.63A11.16,11.16,0,0,0,57.7,18a9.21,9.21,0,0,0,1.77-1.47,5.8,5.8,0,0,0,.91-1.51,2.68,2.68,0,0,1-2.16,1c-2,0-3.33-1.53-3.33-3.86s1.56-4.23,3.72-4.23a3.53,3.53,0,0,1,1.61.32ZM57.31,12a1.51,1.51,0,0,0,1.44,1.71c.92,0,1.47-.65,1.47-1.75s-.53-1.78-1.44-1.78S57.31,10.94,57.31,12Z"/><path d="M84.15,8.59a5.46,5.46,0,0,1,5.78,5.57,6.32,6.32,0,0,1-3.14,5.43,9.64,9.64,0,0,1-5,1.22c-3,0-4.82-1.22-4.82-3.31,0-1.9,1.58-3.24,3.84-3.24,2,0,3.5,1,4.49,3.14a3.57,3.57,0,0,0,1.72-3.12c0-2.06-1.46-3.41-3.76-3.41a10.19,10.19,0,0,0-7,3.27,14.17,14.17,0,0,0-1.17,1.34c-.17.24-.29.34-.43.34a5,5,0,0,1-2.14-2.11c0-.22.1-.34.62-.72s1.35-1.13,2.36-2.09a70.55,70.55,0,0,0,6.55-7.13,40.06,40.06,0,0,0-5.76,1,1.14,1.14,0,0,1-.26,0c-.2,0-.32-.12-.46-.48a8.4,8.4,0,0,1-.51-2.57,9.89,9.89,0,0,0,1.64.12c1.15,0,3.09-.17,5.61-.45A5.59,5.59,0,0,0,84.24,1a1.19,1.19,0,0,1,.48-.12c.34,0,.67.29,1.3,1.25.45.63.6.94.6,1.13s-.07.41-.6.74a6.72,6.72,0,0,0-1.25,1c-1.2,1.15-1.22,1.15-2.71,2.67C81,8.74,80.88,8.86,79.92,9.82A8.19,8.19,0,0,1,84.15,8.59ZM81.84,16.9a2.16,2.16,0,0,0-1.22-.36c-.75,0-1.23.36-1.23.93s.75,1.13,1.9,1.13a5.69,5.69,0,0,0,1.58-.21A2.46,2.46,0,0,0,81.84,16.9Z"/></svg>