<svg viewBox="0 0 37.51 21.39" xmlns="http://www.w3.org/2000/svg"><path d="m6.79 2.35c.41-.48.41-.48.7-.79l-2.21-1.56a6.76 6.76 0 0 1 -1.13 1.61 14.26 14.26 0 0 1 -4.1 3.17 11.14 11.14 0 0 1 1.44 2.22 22 22 0 0 0 5.3-4.65z"/><path d="m17.64 3.6a23.54 23.54 0 0 1 2.59.14v-2.56a19.76 19.76 0 0 1 -2.64.14h-6.21a19.66 19.66 0 0 1 -2.69-.14v2.56a23.81 23.81 0 0 1 2.69-.14z"/><path d="m7.08 7.61a9.8 9.8 0 0 1 .77-1l-2.16-1.45a16.31 16.31 0 0 1 -5.69 6.07 11.87 11.87 0 0 1 1.18 2.48 13.73 13.73 0 0 0 2.08-2v2.67 4a24.07 24.07 0 0 1 -.17 2.93h2.81a24.45 24.45 0 0 1 -.14-2.91v-9.01c.6-.75.79-1.01 1.32-1.78z"/><path d="m10.61 7.18a22 22 0 0 1 -2.83-.18v2.62a24.65 24.65 0 0 1 2.83-.14h4.39v8.69c0 .5-.12.58-1 .58a25.21 25.21 0 0 1 -3.12-.27 9.42 9.42 0 0 1 .65 2.57c1 .05 1.75.07 2.59.07 2.76 0 3.43-.48 3.43-2.47v-9.17h1a24.43 24.43 0 0 1 2.73.14v-2.62a18.34 18.34 0 0 1 -2.81.15z"/><path d="m36 17.19c-1.7-2-4-4.3-5.42-5.6-.46-.4-.65-.69-.65-1a1.57 1.57 0 0 1 .57-1c1.9-1.91 4-4.24 5.53-6a2.07 2.07 0 0 1 .6-.55c.4-.24.5-.32.5-.53 0-.43-1-1.23-2.9-2.26a9.83 9.83 0 0 1 -1.23 2.34 41.3 41.3 0 0 1 -3.84 4.61 11.64 11.64 0 0 0 -1.73 2 2.86 2.86 0 0 0 -.43 1.46 2.66 2.66 0 0 0 .58 1.61 11.77 11.77 0 0 0 1.63 1.8 50.15 50.15 0 0 1 5.47 6.62c.24.38.34.48.55.48a2.1 2.1 0 0 0 .89-.53c1-.77 1.39-1.17 1.39-1.44s-.31-.67-1.51-2.01z"/></svg>