<svg viewBox="0 0 218.74 110" xmlns="http://www.w3.org/2000/svg"><path d="m114.89 0h-114.89l57.45 99.5z" fill="#fdcd00"/><g fill="#231815"><path d="m119.46 47.74v3.13a.37.37 0 0 1 -.35.33h-11.11a.34.34 0 0 1 -.32-.33v-23.79a.3.3 0 0 1 .32-.32h10.71a.32.32 0 0 1 .33.32v3.17a.35.35 0 0 1 -.33.33h-6.71v6.05h5a.37.37 0 0 1 .36.33v3.18a.34.34 0 0 1 -.36.32h-5v6.94h7.12a.34.34 0 0 1 .35.34"/><path d="m131.08 34.72v-1.67c0-2.6-1.44-2.8-1.87-2.8-1.79 0-2.15 1-2.15 2.57v12.31c0 1.57.36 2.61 2.15 2.61 1.32 0 1.87-.71 1.87-2.37v-2.67a.35.35 0 0 1 .35-.37h3.69a.34.34 0 0 1 .34.37v2.53a6.77 6.77 0 0 1 -1.4 4.3 4.85 4.85 0 0 1 -2 1.44 7.08 7.08 0 0 1 -2.88.57 6.76 6.76 0 0 1 -4.78-1.68 6.17 6.17 0 0 1 -1.75-4.63v-12.51a6.2 6.2 0 0 1 1.75-4.63 6.62 6.62 0 0 1 4.78-1.67 6.35 6.35 0 0 1 2.88.61 4.83 4.83 0 0 1 2 1.56 7.53 7.53 0 0 1 1.4 4.57v1.56a.34.34 0 0 1 -.34.34h-3.69a.35.35 0 0 1 -.35-.34"/><path d="m152.8 27.08v23.79a.34.34 0 0 1 -.34.33h-3.7a.34.34 0 0 1 -.33-.33v-10.41h-4.24v10.41a.33.33 0 0 1 -.34.33h-3.69a.34.34 0 0 1 -.34-.33v-23.79a.31.31 0 0 1 .34-.32h3.69a.3.3 0 0 1 .34.32v9.55h4.24v-9.55a.31.31 0 0 1 .33-.32h3.7a.31.31 0 0 1 .34.32"/><path d="m162.92 27.08v23.79a.34.34 0 0 1 -.34.33h-3.7a.33.33 0 0 1 -.33-.33v-23.79a.3.3 0 0 1 .33-.32h3.7a.31.31 0 0 1 .34.32"/><path d="m181.3 39.06v11.81a.34.34 0 0 1 -.34.33h-1.63a.32.32 0 0 1 -.3-.2l-.67-1.5a4.83 4.83 0 0 1 -4.17 2 5.5 5.5 0 0 1 -4.13-1.72 6.78 6.78 0 0 1 -1.54-4.59v-12.47a6.64 6.64 0 0 1 1.4-4.27 5.44 5.44 0 0 1 1.93-1.52 7.68 7.68 0 0 1 2.87-.51 6.18 6.18 0 0 1 4.64 1.83 7 7 0 0 1 1.74 4.91v1.33a.35.35 0 0 1 -.33.34h-3.5a.34.34 0 0 1 -.34-.34c0-3.57-.84-4.24-2.31-4.24a1.46 1.46 0 0 0 -1.13.44 3 3 0 0 0 -.61 2.1v12.48a3.08 3.08 0 0 0 .48 1.89 1.7 1.7 0 0 0 1.36.58c1.64 0 2.21-.87 2.21-3.28v-2.23h-1.47a.35.35 0 0 1 -.34-.37v-2.8a.32.32 0 0 1 .34-.33h5.54a.32.32 0 0 1 .34.33"/><path d="m198.77 32.72v12.51a6.23 6.23 0 0 1 -1.72 4.63 7.6 7.6 0 0 1 -9.53 0 6.24 6.24 0 0 1 -1.74-4.63v-12.51a6.28 6.28 0 0 1 1.74-4.63 7.63 7.63 0 0 1 9.53 0 6.27 6.27 0 0 1 1.72 4.63m-8.6 12.41c0 1.57.36 2.61 2.12 2.61s2.11-1 2.11-2.61v-12.31c0-1.53-.36-2.57-2.11-2.57s-2.12 1-2.12 2.57z"/><path d="m214.15 37.69v2.64a.39.39 0 0 1 -.43.33h-10.1c-.27 0-.44-.17-.44-.33v-2.64c0-.2.17-.33.44-.33h10.1c.26 0 .43.13.43.33"/><path d="m119.34 59.74v3.17a.34.34 0 0 1 -.34.33h-3.62v20.28a.34.34 0 0 1 -.34.33h-3.7a.33.33 0 0 1 -.33-.33v-20.28h-3.62a.34.34 0 0 1 -.35-.33v-3.17a.32.32 0 0 1 .35-.34h11.61a.32.32 0 0 1 .34.34"/><path d="m134.1 77.88a6 6 0 0 1 -1.88 4.61 5.45 5.45 0 0 1 -2.09 1.26 8.16 8.16 0 0 1 -2.64.44 6.32 6.32 0 0 1 -4.49-1.9 7.93 7.93 0 0 1 -2.09-4.57.3.3 0 0 1 .08-.27.39.39 0 0 1 .27-.13h3.74a.35.35 0 0 1 .32.3c.21 1.23.77 2.7 2.3 2.77h.13a2 2 0 0 0 2.18-2.14c0-2.14-1.77-3.57-3.6-5.14a18.25 18.25 0 0 1 -3.31-3.2 7.56 7.56 0 0 1 -1.56-4.71c0-3.83 2.43-6.13 6.47-6.13a5.59 5.59 0 0 1 3.89 1.6 7.38 7.38 0 0 1 2.07 4.27.24.24 0 0 1 -.06.26.28.28 0 0 1 -.26.14h-3.57a.39.39 0 0 1 -.37-.3c-.3-1.93-1.53-2.13-2-2.13-1.29 0-2 .8-2 2.27 0 1.79 1.71 3.2 3.47 4.73a21.45 21.45 0 0 1 3.37 3.3 7.56 7.56 0 0 1 1.64 4.67"/><path d="m151 59.74v17.91a7.6 7.6 0 0 1 -.44 2.77 5.14 5.14 0 0 1 -3.32 3.33 7.8 7.8 0 0 1 -2.74.44 7.65 7.65 0 0 1 -2.7-.44 5.23 5.23 0 0 1 -3.34-3.33 8.06 8.06 0 0 1 -.43-2.77v-17.91a.31.31 0 0 1 .33-.34h3.64a.32.32 0 0 1 .34.34v18.07a3.27 3.27 0 0 0 .53 2 2.38 2.38 0 0 0 3.16 0 3.2 3.2 0 0 0 .54-2v-18.07a.32.32 0 0 1 .34-.34h3.71a.31.31 0 0 1 .32.34"/><path d="m174.12 59.74v23.78a.36.36 0 0 1 -.35.33h-3.17a.32.32 0 0 1 -.32-.33v-18l-3.07 14a.42.42 0 0 1 -.37.3h-3.11a.37.37 0 0 1 -.33-.3l-3.11-14v18a.33.33 0 0 1 -.33.33h-3.13a.35.35 0 0 1 -.33-.33v-23.78a.33.33 0 0 1 .33-.34h5a.35.35 0 0 1 .35.27l3.09 13.71 3.07-13.71a.33.33 0 0 1 .33-.27h5.07a.34.34 0 0 1 .35.34"/><path d="m192.08 83.72a.46.46 0 0 1 -.27.13h-3.56a.34.34 0 0 1 -.34-.3l-.71-5h-4.36l-.71 5a.35.35 0 0 1 -.33.3h-3.57a.39.39 0 0 1 -.27-.13.31.31 0 0 1 -.07-.23l4.41-23.82a.32.32 0 0 1 .33-.27h4.77a.33.33 0 0 1 .34.27l4.39 23.82a.4.4 0 0 1 0 .23m-7.13-18.91-1.55 9.83h3.09z"/><path d="m209.5 83.72a.43.43 0 0 1 -.27.13h-3.74a.31.31 0 0 1 -.32-.26l-2.91-9.74c-.46 0-1.2.07-2 .07v9.6a.32.32 0 0 1 -.32.33h-3.72a.35.35 0 0 1 -.32-.33v-23.78a.33.33 0 0 1 .32-.34h5.64c2.51 0 4.27.57 5.44 1.74s1.7 3 1.7 5.54c0 3.16-1 5.24-2.9 6.17l3.39 10.57a.32.32 0 0 1 0 .3m-9.21-13.45h1.4c2.23 0 3-.86 3-3.59s-.75-3.64-3-3.64h-1.4z"/><path d="m218.74 59.74v23.78a.33.33 0 0 1 -.33.33h-3.7a.34.34 0 0 1 -.35-.33v-23.78a.33.33 0 0 1 .35-.34h3.7a.31.31 0 0 1 .33.34"/><path d="m115.5 109.92a.19.19 0 0 1 -.14.08h-2a.22.22 0 0 1 -.19-.17l-.38-2.8h-2.42l-.39 2.8a.2.2 0 0 1 -.18.17h-2a.17.17 0 0 1 -.16-.08.16.16 0 0 1 0-.12l2.44-13.21a.19.19 0 0 1 .18-.14h2.65a.18.18 0 0 1 .19.14l2.44 13.21a.14.14 0 0 1 0 .12m-3.89-10.49-.88 5.46h1.72z"/><path d="m125.17 109.92a.23.23 0 0 1 -.16.08h-2.01a.2.2 0 0 1 -.2-.15l-1.6-5.4c-.25 0-.66 0-1.09 0v5.33a.19.19 0 0 1 -.18.19h-2a.22.22 0 0 1 -.2-.19v-13.15a.19.19 0 0 1 .2-.18h3.11a4 4 0 0 1 3 1 4.11 4.11 0 0 1 .94 3.07c0 1.75-.52 2.9-1.6 3.42l1.89 5.87a.18.18 0 0 1 0 .16m-5.11-7.45h.78c1.24 0 1.64-.49 1.64-2s-.4-2-1.64-2h-.78z"/><path d="m133.32 96.63v1.75a.19.19 0 0 1 -.18.19h-2.06v11.24a.19.19 0 0 1 -.17.19h-2.06a.19.19 0 0 1 -.18-.19v-11.24h-2a.21.21 0 0 1 -.2-.19v-1.75a.18.18 0 0 1 .2-.18h6.52a.16.16 0 0 1 .18.18"/><path d="m146.69 96.63v1.75a.21.21 0 0 1 -.18.19h-3.95v3.35h2.89a.2.2 0 0 1 .21.18v1.75a.19.19 0 0 1 -.21.18h-2.89v5.78a.2.2 0 0 1 -.18.19h-2.06a.19.19 0 0 1 -.18-.19v-13.18a.17.17 0 0 1 .18-.18h6.19a.18.18 0 0 1 .18.18"/><path d="m151.07 96.63v13.18a.2.2 0 0 1 -.2.19h-2a.19.19 0 0 1 -.19-.19v-13.18a.17.17 0 0 1 .19-.18h2c.12 0 .2.06.2.18"/><path d="m160.77 108.07v1.74a.22.22 0 0 1 -.18.19h-6.2a.21.21 0 0 1 -.19-.19v-13.18a.18.18 0 0 1 .19-.18h5.94a.17.17 0 0 1 .17.18v1.75a.19.19 0 0 1 -.17.19h-3.7v3.35h2.78a.19.19 0 0 1 .21.18v1.75a.19.19 0 0 1 -.21.19h-2.78v3.85h4a.18.18 0 0 1 .18.18"/><path d="m168.5 108.07v1.74a.19.19 0 0 1 -.18.19h-4.88a.2.2 0 0 1 -.19-.19v-13.18a.17.17 0 0 1 .19-.18h2.06a.17.17 0 0 1 .17.18v11.26h2.65a.17.17 0 0 1 .18.18"/><path d="m177.41 100.56v5.33a6.2 6.2 0 0 1 -.22 1.77 3.12 3.12 0 0 1 -.71 1.32 2.87 2.87 0 0 1 -1.15.78 5.48 5.48 0 0 1 -1.62.24h-3.3a.19.19 0 0 1 -.19-.19v-13.18a.17.17 0 0 1 .19-.18h3.3a4.66 4.66 0 0 1 1.62.23 3.1 3.1 0 0 1 1.15.79 3 3 0 0 1 .71 1.3 6.4 6.4 0 0 1 .22 1.79m-4.76 7.44h.73c1.22 0 1.62-.45 1.62-1.84v-5.87c0-1.39-.4-1.84-1.62-1.84h-.73z"/></g></svg>