<svg enable-background="new 0 0 360 63.5" viewBox="0 0 360 63.5" xmlns="http://www.w3.org/2000/svg"><g fill="#fff"><path d="m124.9 8.2v.3h-3.7v-.3l1.5-.1-.9-2.2h-3.4l-.9 2.2 1.3.1v.3h-3v-.3l1.2-.1 3-7.2h.6l3.1 7.2zm-3.3-2.7-1.6-3.7-1.5 3.7z"/><path d="m128.4 4.5c.4-.9 1.3-1.5 2.2-1.5.4 0 .8.1 1 .4 0 .4-.2.6-.7.6-.3 0-.5-.1-.8-.3l-.2-.1c-.7.3-1.2.8-1.5 1.6v1 2l1.2.1v.3h-3.3v-.4l1.1-.1c0-.6 0-1.4 0-2v-.5c0-.7 0-1.2 0-1.7l-1.2-.1v-.3l1.8-.5.2.1z"/><path d="m136.9 8.2c-.3.3-.9.5-1.5.5-1 0-1.5-.4-1.5-1.3 0-.2 0-.5 0-.9v-2.9h-1.3v-.4l1.4-.1.3-1.6h.6l-.1 1.6h2v.4h-2v3.7c0 .7.3.9.9.9.4 0 .6-.1 1-.3z"/><path d="m143.8 3.1c.1-1.2.3-1.9 1-2.5.6-.5 1.2-.7 1.8-.7s1.1.2 1.2.5c0 .2-.2.4-.6.4-.3 0-.6-.1-1-.3l-.3-.2c-.3.1-.5.3-.7.5-.4.4-.6 1.1-.6 2.3h2.1v.4h-2.1v2.5 2l1.4.1v.3h-3.5v-.2l1.2-.1c0-.6 0-1.3 0-2v-2.5h-1.3v-.4z"/><path d="m150.4 4.5c.4-.9 1.3-1.5 2.2-1.5.4 0 .8.1 1 .4 0 .4-.2.6-.7.6-.3 0-.5-.1-.8-.3l-.1-.1c-.7.3-1.2.8-1.5 1.6v1 2l1.2.1v.3h-3.3v-.4l1.1-.1c0-.6 0-1.4 0-2v-.5c0-.7 0-1.2 0-1.7l-1.2-.1v-.3l1.8-.5.2.1z"/><path d="m155.2 5.9c0-1.9 1.6-2.8 3.2-2.8s3.2.9 3.2 2.8-1.6 2.8-3.2 2.8c-1.7 0-3.2-.9-3.2-2.8zm5.3 0c0-1.6-.9-2.5-2.2-2.5-1.4 0-2.2.9-2.2 2.5s.8 2.4 2.2 2.4 2.2-.9 2.2-2.4z"/><path d="m175.2 8.2v.3h-3.1v-.3l1.1-.1c0-.6 0-1.4 0-2v-1.1c0-1.1-.5-1.4-1.3-1.4-.6 0-1.3.2-2.2.9v.5 1.1 2l1.1.1v.3h-3.1v-.3l1.1-.1c0-.6 0-1.4 0-2v-1c0-1.1-.4-1.5-1.2-1.5-.6 0-1.3.2-2.2.9v1.6 2l1 .1v.3h-3.1v-.3l1.2-.1c0-.6 0-1.4 0-2v-.5c0-.7 0-1.2 0-1.7l-1.2-.1v-.3l1.8-.5.2.1.1 1c.8-.7 1.7-1.1 2.5-1.1.9 0 1.4.3 1.6 1.1.8-.8 1.7-1.1 2.6-1.1 1.1 0 1.8.5 1.8 1.9v1.2 2z"/><path d="m185.1 8.2c-.3.3-.9.5-1.5.5-1 0-1.5-.4-1.5-1.3 0-.2 0-.5 0-.9v-2.9h-1.3v-.4l1.4-.1.3-1.6h.6l-.1 1.7h2v.4h-2v3.7c0 .7.3.9.9.9.4 0 .6-.1 1-.3z"/><path d="m194.1 8.2v.3h-3.1v-.3l1.2-.1c0-.6 0-1.4 0-2v-1c0-1.1-.4-1.5-1.3-1.5-.6 0-1.4.2-2.3.9v1.6 2l1 .1v.3h-3.1v-.3l1.2-.1c0-.6 0-1.4 0-2v-5.3l-1.2-.1v-.2l1.9-.4.2.1v1.6 2.3c.8-.7 1.8-1.1 2.7-1.1 1.2 0 1.8.6 1.8 2v1.1 2z"/><path d="m197 5.8c0 1.6 1.1 2.4 2.5 2.4.9 0 1.6-.3 2.1-.8l.2.1c-.5.7-1.4 1.2-2.6 1.2-1.8 0-3.2-1-3.2-2.8 0-1.7 1.5-2.8 3.2-2.8 1.5 0 2.6.9 2.6 2.1 0 .3 0 .5-.1.6zm3.3-.4c.5 0 .6-.2.6-.6 0-.8-.7-1.5-1.8-1.5s-2 .7-2.2 2z"/><path d="m215.1 6.5-.1 2h-6.9v-.3l1.4-.1c0-1 0-2.1 0-3.1v-.6c0-1 0-2.1 0-3.1l-1.4-.1v-.3h3.8v.3l-1.4.1v3.2.6 2.9h3.6l.4-1.6h.6z"/><path d="m223.5 8.2c-.3.3-.7.5-1.1.5-.7 0-1.1-.4-1.2-1-.8.7-1.4 1-2.3 1-1 0-1.8-.5-1.8-1.4 0-.7.5-1.2 2.2-1.7.5-.1 1.2-.3 1.8-.4v-.3c0-1.2-.5-1.5-1.5-1.5-.3 0-.7.1-1 .2l-.3.8c-.1.3-.3.4-.6.4s-.5-.1-.5-.4c.3-.9 1.2-1.4 2.6-1.4s2.1.5 2.1 1.8v2.5c0 .7.2.9.6.9.2 0 .4-.1.6-.2zm-2.3-2.7c-.6.1-1.2.3-1.6.4-1.2.4-1.5.8-1.5 1.3 0 .6.5.9 1.3.9.6 0 1.1-.2 1.9-.8v-1.8z"/><path d="m232.5 8.2v.3h-3.1v-.3l1.1-.1c0-.6 0-1.4 0-2v-1c0-1.1-.4-1.5-1.3-1.5-.6 0-1.4.2-2.3.9v1.6 2l1 .1v.3h-2.9v-.3l1.2-.1c0-.6 0-1.4 0-2v-.5c0-.7 0-1.2 0-1.7l-1.2-.1v-.3l1.8-.5.2.1.1 1c.8-.7 1.8-1.1 2.7-1.1 1.2 0 1.8.6 1.8 2v1.1 2z"/><path d="m241.5 8.2v.3l-2.1.1v-.8c-.5.6-1.2.9-2.1.9-1.7 0-2.9-1.1-2.9-2.8 0-1.8 1.3-2.9 3-2.9.7 0 1.3.2 1.9.8v-3l-1.2-.1v-.2l1.9-.4.2.1v1.6 6.3zm-2.1-4c-.7-.5-1.2-.7-1.8-.7-1.2 0-2.2.7-2.2 2.4 0 1.6.9 2.3 2.2 2.3.7 0 1.2-.2 1.8-.8z"/><path d="m123 29-4.4-4.2-3.5 3h-8.3v1.2h7.4z"/><path d="m118.8 35.5h-14.8v1.3h22.2l-4.1-4.2z"/><path d="m101.5 24.9-7-.1 7 3.8z"/><path d="m76.6 30.6-13.9 12.5 11.4-5.1v24.1l7.1-16.6-7-7.5 8.3-3.7z"/><path d="m78.1 23.4-10.2 9.2 14.6-6.5z"/><path d="m317.1 63v-4.3c-.4 0-7.9 1.3-7.9 1.3z"/><path d="m231.2 37.6-4.1-4.2-3.3 2.9h-22.1l3.8-13.2-12.1 13.2h-21.1v1.3h20l-22.4 24.5 26.9-8.5 4.6-16h.3l4.6 15.1 26.7 9.4-31.2-24.5z"/><path d="m101.8 35.5-2.2-2.4h7.9l-4.1-4.2-3.3 2.9h-1.7l-7.9-8.5v8.5h-6.6v1.3h6.6v29z"/><path d="m113 57.9c-.4 0-7.9 1.3-7.9 1.3l7.9 3 7.4-17.4-7.4-8z"/><path d="m247.1 42.1h9.6l-4.1-5.9-3.3 4.6h-1.7l2.1-4.7-7.4-8v12.7h-1.9-6.3v1.3h6.1 2.1v11.2l-9.2 1.3 11.1 5.4 13-8.8-14.9 2.1z"/><path d="m265.7 42.6 9.3-.6v7l3.1-7.3 11.6-.8 6.3-9.8-15.4 4.7 1.8-4.2-7.4-7.9v13.9l-8.2 2.5 1.7-3.9-7.4-7.9v13.6l-4.6 1.4 4.6-.3v10.6z"/><path d="m83.5 53.1 4.8-11.2-4.8-5.2z"/><path d="m101.5 41.7v16.4l4.8-5.2z"/><path d="m49 40.8h8.2l-4.1-4.2-3.2 3h-18.2l2.6-2.8h7.5 8.3l-4.2-4.2-3.2 2.9h-7.4l1.2-1.3-4.9-2.3v3.6h-20.1v1.3h20.1v2.8h-25.8v1.2z"/><path d="m54.7 47.4-4.1-4.2-3.2 3h-14.5-2.8l1.4-5.2-7.7 5.2h-17.2v1.2h15.4l-22 14.7 26.9-4.3 2.9-10.4h2.6z"/><path d="m57.2 31.8-4.1-4.2-3.2 3h-14l13.2-4.9-9-2.3-4.4 7.2h-7.2l.5-5.7-12-1.5 11.5 7.2h-22.7v1.2h43.2z"/><path d="m289.7 45.9c-.4 0-7.9 1.3-7.9 1.3l7.9 3 6.3-19.1-6.3 9.8z"/><path d="m37.2 59.2 25.8 2.9-31.5-14.7z"/><path d="m261.2 53.5 34.8 8.6-8.9-10.5z"/><path d="m328.8 56.1 4.6-4.2-9-4.3z"/><path d="m312.5 44.9-6.2-4.8-1.8 7.9-6.7.2 6.5.9-3.1 13.4 8.2-12.7 7.7 1.1v12.1l5.2-15.4-11.7.3z"/><path d="m338.7 56.4 14.6-2.7-5.2-5.3z"/><path d="m360 61.9-6.7-8.2.1 4.4-14.5 5.4z"/><path d="m338 43.4.7 13 6.3-10.4z"/><path d="m356.9 42.9-9.5-.1 8 5.5z"/><path d="m151.8 62.1-7.8-7.2-.3 4.8z"/><path d="m156.4 47.2 6.7-1.1-6-1.3.7-2.4-6-3.4v4.8l-4-.9-3.1 6.2 7.1-1.1v7.9l-7.8-1 7.8 3.4v3.8l1.1-3.3 7.2 3.1 5.4-4.2-11.8-1.5z"/><path d="m140.4 53-8.8 6.6 6.1 2.3z"/><path d="m133.9 40.5-2.3 19.1 8.9-15.5z"/></g></svg>