<svg viewBox="0 0 366.23 41.83" xmlns="http://www.w3.org/2000/svg"><g fill="#fff"><path d="m4.73 9.54c3.84 1 3.25 3.13 2.11 2.52a5.89 5.89 0 0 0 -2.12-2.26v4.67c0 .11-.42.32-.76.32h-.2v-4.79a11.85 11.85 0 0 1 -3.56 3.6l-.2-.25a12.78 12.78 0 0 0 3.28-4.58h-2.94l-.14-.47h3.56v-1.82l1.53.18c0 .19-.19.34-.57.39v1.25h1.85l.76-.85s.81.62 1.33 1.06c-.05.18-.22.26-.47.26h-3.47v.77zm-4.59-3.27-.14-.47h4.84a22 22 0 0 0 1-3l1.61.44c-.07.18-.29.33-.67.31a14.33 14.33 0 0 1 -1.54 2.25h1.49l.78-.87s.88.63 1.4 1.1c0 .16-.21.24-.47.24zm.2-4.11h3.44v-2.11l1.53.14c0 .2-.2.36-.58.43v1.54h1.61l.74-.83a15.41 15.41 0 0 1 1.38 1c-.05.18-.21.26-.47.26h-7.5zm1.48.61c2.57 1.65 1.55 3.45.68 2.69a5.5 5.5 0 0 0 -.92-2.59zm13.47 2s.9.63 1.45 1.1c0 .18-.23.24-.46.24h-2.07v8.4c0 .08-.31.3-.82.3h-.14v-8.72h-2.88v.49c0 2.92-.43 6.09-4 8.2l-.23-.21c2.77-2.17 3.26-4.91 3.26-8v-5.24l1.17.36a23.54 23.54 0 0 0 4.37-1.64l1.27.95c-.15.16-.44.15-.83 0a33.43 33.43 0 0 1 -5 1.07v3.57h4.12z"/><path d="m19.06 3.78c3.49.43 2.92 2.52 1.77 2a4.57 4.57 0 0 0 -1.93-1.86zm4.94-.72c-.78 2-2.29 5.74-2.54 6.48a5.19 5.19 0 0 0 -.25 1.38 17.38 17.38 0 0 1 .37 2.81c0 .66-.3 1-.86 1-.31 0-.47-.31-.49-.8.24-1.65.13-2.9-.25-3.12a1.7 1.7 0 0 0 -.88-.23v-.36h.81c.2 0 .25 0 .39-.34.31-.55.31-.55 3.33-6.95zm-3.7-2.91c3.66.6 3.1 2.7 1.93 2.15a5.58 5.58 0 0 0 -2.09-2zm15.09 8.7a1.25 1.25 0 0 1 -.7.24c-.14 2.89-.54 4.65-1.21 5.19a2.61 2.61 0 0 1 -1.65.5.73.73 0 0 0 -.29-.65 7.38 7.38 0 0 0 -1.5-.34v-.28c.65.05 1.82.15 2.18.15s.49 0 .63-.16c.43-.36.74-1.95.88-4.51h-7.3a13.24 13.24 0 0 1 -3.7 2.3l-.16-.24a12.73 12.73 0 0 0 4.43-4.21h-1.29v.45a.84.84 0 0 1 -.81.54h-.13v-6.7l1 .18a8.45 8.45 0 0 0 2-1.31l1.32.76c-.09.16-.38.16-.78.08a11.57 11.57 0 0 1 -2.64.89v2.08h1.47l.71-.81s.79.58 1.26 1c0 .17-.2.25-.45.25h-2.95v2.1h7.16v-2.06h-2.57l-.17-.48h2.74v-2h-2.79l-.16-.47h2.77l.56-.58 1.31.91a1.39 1.39 0 0 1 -.75.32v5.24a1.35 1.35 0 0 1 -.81.31h-.13v-.7h-5.08l.87.34c-.13.14-.27.21-.69.14a8.67 8.67 0 0 1 -1 1.19h6.64l.54-.51zm-10.06 1.88c.59 4.24-2.6 3.79-1.75 2.66a3.62 3.62 0 0 0 1.42-2.68zm1.33-.1c2.29 1.7 1.05 3.66.22 2.79a4 4 0 0 0 -.45-2.71zm1.75-.36c2.86 1.2 2 3.1 1.08 2.43a3.72 3.72 0 0 0 -1.3-2.3zm1.87-.51c3 .84 2.39 2.81 1.42 2.2a3.67 3.67 0 0 0 -1.62-2.06z"/><path d="m42.84 1.49a3.7 3.7 0 0 1 1.06-.16c.71 0 2 .53 2 .91s-.34.5-.52.87-.48 1.07-.84 1.83a11 11 0 0 1 1.56-.16c1.32 0 2.07.65 2.07 2.5a9.12 9.12 0 0 1 -1.69 5.38 2.7 2.7 0 0 1 -2.14 1c-.58 0-.65-.22-.88-.61-.15-.23-.29-.44-1.3-1.2l.2-.26a6.81 6.81 0 0 0 2.19 1 1.63 1.63 0 0 0 1.45-.86 9.09 9.09 0 0 0 1.24-4.6c0-1.25-.3-1.77-1.33-1.77a8.28 8.28 0 0 0 -1.71.25c-.52 1.1-1.15 2.35-1.76 3.46a38.44 38.44 0 0 1 -2.67 4.36c-.24.33-.43.44-.65.44a.51.51 0 0 1 -.47-.52 1 1 0 0 1 .27-.68 26.07 26.07 0 0 0 2.83-4 28.32 28.32 0 0 0 1.45-2.82c-.7.18-1.35.39-1.73.52a5.4 5.4 0 0 1 -1.47.45 1.66 1.66 0 0 1 -1.24-1.05 1.79 1.79 0 0 1 0-.89l.38-.07c.16.44.27 1 .81 1s2.29-.42 3.59-.68a13.3 13.3 0 0 0 1-2.64.38.38 0 0 0 -.29-.42 5.81 5.81 0 0 0 -1.37-.21zm6.82 3.34a4.72 4.72 0 0 1 3.05 1.39 4.2 4.2 0 0 1 1 2.89c0 .6-.2 1.1-.68 1.1s-.44-.44-.94-.5a13.9 13.9 0 0 0 -2.09.14l-.09-.4c.63-.12 1.89-.34 2.42-.51.37-.11.41-.25.37-.68a3.38 3.38 0 0 0 -.75-1.78 3.82 3.82 0 0 0 -2.47-1.25z"/><path d="m62.34 1.41.12-.41a6.91 6.91 0 0 1 3.15 1 1.55 1.55 0 0 1 .9 1.38c0 .39-.2.58-.54.58a10.77 10.77 0 0 0 -1.28-.06 17.42 17.42 0 0 0 -2.77.45c-.27.07-.36.16-.36.34s.18.62.2.91a6.2 6.2 0 0 1 -.4 1.41 9.71 9.71 0 0 0 -.47 2.51c0 .18.11.21.26.1a10 10 0 0 1 6-2.4c2.65 0 3.91 1.54 3.91 3.14 0 2.87-4.72 4-8.75 3.83l-.06-.42a19.45 19.45 0 0 0 3.37-.39c3.38-.72 4.38-2.04 4.38-3.2 0-1.49-1.35-2.39-2.9-2.39a8.72 8.72 0 0 0 -5.65 2.81c-.21.22-.43.68-.7.68a.7.7 0 0 1 -.54-.29 1.25 1.25 0 0 1 -.34-.68 7.4 7.4 0 0 1 .18-1c.12-1 .47-2.38.61-3.19a7 7 0 0 0 0-1.52c0-.33.15-.55.72-.68 1-.25 2.74-.6 3.5-.81.27-.08.3-.25 0-.54a6.36 6.36 0 0 0 -2.54-1.16z"/><path d="m90.71 3.52s.93.66 1.49 1.15c0 .18-.2.24-.45.24h-3.08v5.33c0 .15-.39.34-.77.34h-.2v-1.07h-3.7v1c0 .13-.42.32-.78.32h-.18v-6h-3.6v8.17h9.74l.82-1s1 .68 1.58 1.19c-.05.18-.23.26-.48.26h-11.65v.95c0 .13-.39.37-.75.37h-.2v-9.86h-2.74l-.14-.47h2.88v-4.07l1.6.18c0 .23-.18.39-.65.45v3.44h3.6v-4.34l1.61.18c-.06.21-.2.37-.65.42v3.74h3.69v-4.25l1.64.17c-.06.22-.22.39-.67.43v3.65h1.21zm-3 1.39h-3.71v4.09h3.7z"/><path d="m104.42 6.68c1.46 1.41 4.21 2.43 6.66 2.9v.16a1.12 1.12 0 0 0 -.86.78 15.93 15.93 0 0 1 -4-1.82q-.11.2-.51.24v5.51c0 .13-.43.33-.79.33h-.18v-6.37l1.23.11a8 8 0 0 1 -2-1.84h-2a9.59 9.59 0 0 1 -1.82 1.71l1.37.15c0 .19-.16.36-.58.4v1.27c0 1.75-.86 3.63-5.33 4.6l-.18-.26c3.77-1 4.54-2.72 4.54-4.37v-1.66a16.17 16.17 0 0 1 -5.17 2.29l-.16-.29a13.43 13.43 0 0 0 6-3.84h-2.5v.51c0 .09-.4.3-.81.3h-.18v-7l1.08.49h9.13l.64-.62 1.33.9a1.55 1.55 0 0 1 -.79.33v5.48a1.28 1.28 0 0 1 -.81.32h-.14v-.71zm-6.28-5.27v2.11h4.14v-2.11zm0 4.78h4.14v-2.19h-4.14zm5.11-4.78v2.11h4.29v-2.11zm4.29 4.78v-2.19h-4.29v2.2z"/><path d="m126.44 4.72a3.15 3.15 0 0 1 1.22.45c.41.26.88.74.88 1.15 0 .26-.11.32-.77.5a36.93 36.93 0 0 0 -5.26 1.95v2.67c0 .34-.18.54-.46.54a.5.5 0 0 1 -.53-.56c0-.35.09-1.31.09-2.23-1.76 1-3.06 2-3.06 3s1.25 1.34 3 1.34a33.67 33.67 0 0 0 4.59-.51c.57 0 .79.19.79.43s0 .39-.63.52a21.85 21.85 0 0 1 -4 .44c-3.29 0-4.39-.89-4.39-2.14s1.57-2.53 3.75-3.76c-.09-1.39-.45-1.91-1.43-1.91a5.21 5.21 0 0 0 -3 1.59c-.63.56-1.14 1.29-1.5 1.29a.55.55 0 0 1 -.56-.53c0-.44.69-.86 1.54-1.64a16.73 16.73 0 0 0 2.55-3 11.72 11.72 0 0 1 -1.28.08c-1.49 0-1.78-.24-2.55-1.52l.39-.23a2.55 2.55 0 0 0 2.34 1.05 8.8 8.8 0 0 0 1.57-.16 5.84 5.84 0 0 0 .62-1.53c.07-.31 0-.39-.34-.52a4 4 0 0 0 -1-.18v-.3a3.73 3.73 0 0 1 1-.13c.51 0 1.62.29 1.62.65s-.14.32-.34.71l-.59 1.09a18.37 18.37 0 0 0 2.5-.75c.79-.31.92-.44 1.19-.44s.68.12.68.38-.16.3-.47.43a21.46 21.46 0 0 1 -4.39 1.2 15 15 0 0 1 -1.8 2.37c-.07.1 0 .18.11.11a5.07 5.07 0 0 1 2-.53c1.13 0 1.82.71 2 2 1.49-.74 3.38-1.42 4.55-2 .29-.13.33-.27.07-.53a2.33 2.33 0 0 0 -.94-.56z"/><path d="m138.71 6.92-2.61 1.17v5.3c0 .76-.16 1.24-1.57 1.39a1 1 0 0 0 -.36-.67 3.67 3.67 0 0 0 -1.33-.34v-.26s1.58.12 1.91.12.39-.08.39-.34v-4.78l-2.14.94a.53.53 0 0 1 -.36.39l-.53-1.2c.62-.13 1.73-.46 3.08-.88v-3.58h-2.69l-.15-.45h2.79v-3.73l1.61.18c0 .21-.22.37-.65.42v3.1h.68l.7-.85s.81.6 1.3 1c-.05.18-.2.26-.45.26h-2.23v3.36l2.52-.79zm5.06 6.4a13.26 13.26 0 0 0 1.87.11h3.42v.22a.65.65 0 0 0 -.57.7h-2.94c-2.81 0-4.45-.66-5.45-3.5a7.09 7.09 0 0 1 -3 3.92l-.25-.19a9.17 9.17 0 0 0 2.82-6.68l1.63.23c-.06.21-.22.37-.62.39a18.42 18.42 0 0 1 -.39 1.86 4.14 4.14 0 0 0 2.55 2.72v-7.22h-2.66v.57c0 .08-.4.29-.79.29h-.16v-6.25l1 .45h6.14l.63-.58 1.35.92a1.39 1.39 0 0 1 -.79.32v4.65c0 .12-.5.35-.83.35h-.14v-.72h-2.79v3.12h2.2l.77-.89s.88.63 1.42 1.12c0 .18-.21.26-.46.26h-3.91zm2.79-7.92v-4h-6.41v4z"/><path d="m154.75 4.89c.27.57.61.93.95.93a48.81 48.81 0 0 0 4.84-.93c.45-.11.6-.34.87-.34.5 0 1.47.54 1.47 1s-.53.39-1.17.83-2.64 2.12-3.6 3a5.15 5.15 0 0 1 1.07-.08 1.38 1.38 0 0 1 1.4.81 17.5 17.5 0 0 1 .59 1.81c.26 1 .54 1.25 1.48 1.25a18.19 18.19 0 0 0 3.1-.32c.66 0 1 .19 1 .48 0 .58-2.43.73-3.68.73-1.9 0-2.35-.39-2.68-1.72-.12-.5-.29-1.2-.45-1.78a1 1 0 0 0 -1-.76 2.56 2.56 0 0 0 -1.63.55 21.07 21.07 0 0 0 -3.1 3.14.81.81 0 0 1 -.63.33.44.44 0 0 1 -.47-.46c0-.5.41-.84.87-1.24.75-.67 2.23-1.9 3.18-2.74 1.39-1.2 3.15-2.81 3.93-3.62.23-.22.09-.37-.24-.3a33.45 33.45 0 0 0 -3.81 1c-.47.17-.65.41-1 .41a1.85 1.85 0 0 1 -1.56-1 1.58 1.58 0 0 1 0-.84zm1.85-4.11.25-.25a6.71 6.71 0 0 0 3.48 1.25c.45 0 .63-.05.92-.05.48 0 1.1.26 1.1.65 0 .2-.15.37-.58.37s-.52 0-1 0a21.16 21.16 0 0 0 -3.11.8l-.17-.38c.74-.24 1.7-.58 2.24-.81a5.43 5.43 0 0 1 -3.13-1.58z"/><path d="m170.3 10.81a7.33 7.33 0 0 1 3.78 2.25 1.69 1.69 0 0 1 .43 1.09.59.59 0 0 1 -.63.66c-.36 0-.56-.19-.81-.7a7.58 7.58 0 0 0 -3-3z"/><path d="m188.08 12.53v1.05h-7.85v-.83c1.19-1.15 2.36-2.33 3.21-3.19 2-2 2.75-3.19 2.75-4.54a2.36 2.36 0 0 0 -2.57-2.46 4.28 4.28 0 0 0 -1.33.21l-.51 1.23c-.2.58-.45.86-.86.86a.79.79 0 0 1 -.74-.44c.38-1.61 2-2.43 3.74-2.43 2.38 0 3.55 1.2 3.55 3 0 1.43-.85 2.58-3.6 5.11-.5.49-1.53 1.44-2.63 2.45z"/><path d="m198.32 13.11v.47h-7v-.47l2.9-.26c0-1 0-2 0-3v-6.72l-2.77.34v-.47l3.76-.89.27.18-.09 2.52v5.06c0 1 0 2 .06 3z"/><path d="m216.22 3.52s.94.66 1.49 1.15c-.05.18-.19.24-.45.24h-3.07v5.33c0 .15-.4.34-.78.34h-.2v-1.07h-3.69v1c0 .13-.41.32-.77.32h-.18v-6h-3.57v8.17h9.74l.84-1s1 .68 1.59 1.19c-.06.18-.24.26-.49.26h-11.68v.95c0 .13-.4.37-.76.37h-.24v-9.86h-2.73l-.15-.47h2.88v-4.07l1.61.18c0 .23-.18.39-.65.45v3.44h3.6v-4.34l1.6.18c0 .21-.2.37-.65.42v3.74h3.69v-4.25l1.64.17c0 .22-.22.39-.66.43v3.65h1.2zm-3 1.39h-3.69v4.09h3.69z"/><path d="m220 13.66a15.55 15.55 0 0 0 1.46-5l1.51.37a.6.6 0 0 1 -.63.34 12.62 12.62 0 0 1 -2 4.41zm5-8.54c3 1.82 2 3.81 1.08 3a3.7 3.7 0 0 0 -.25-1.05l-1.55.26v7.11c0 .08-.34.29-.79.29h-.14v-7.23c-.72.12-1.53.23-2.4.36a.56.56 0 0 1 -.43.32l-.39-1.1c.41 0 1 0 1.74-.06a32.42 32.42 0 0 0 3.33-5.12l1.48.6c-.09.16-.33.27-.71.22a26.87 26.87 0 0 1 -3.56 4.28l3.24-.21a9.13 9.13 0 0 0 -.92-1.57zm-.23-4.57a.65.65 0 0 1 -.67.28 15.38 15.38 0 0 1 -2 2.48c1.33 1 .78 2 0 1.57a5.24 5.24 0 0 0 -1.91-2.26l.18-.12a5.64 5.64 0 0 1 1.4.6 17.93 17.93 0 0 0 1.48-3.1zm.37 8.1c2.76 2.16 1.73 4.23.8 3.36a8.34 8.34 0 0 0 -1-3.28zm10.86 4.83c.39.12.5.23.5.39 0 .49-.63.6-4 .6h-2.5c-1.55 0-1.91-.24-1.91-1.08v-7.65l1.17.47h4.94v-4.52h-6.61l-.16-.47h6.57l.58-.6 1.32.92a1.55 1.55 0 0 1 -.76.32v5.76a1.33 1.33 0 0 1 -.83.32h-.14v-1.25h-5.17v6.55c0 .34.12.45 1.06.45h2.36 2.3s.33-.08.4-.27a22.23 22.23 0 0 0 .56-2.71h.25z"/><path d="m246.55 13.21c4.37-.65 6.59-2.63 6.59-5.61s-2.43-4.68-5.42-4.68c-.22 0-.42 0-.63 0a2.82 2.82 0 0 1 .68 1.64 7.28 7.28 0 0 1 -.56 2.56c-.73 1.91-2.84 5.1-4.59 5.1-1.17 0-2.39-1.65-2.39-3.65a5.86 5.86 0 0 1 2.34-4.48 8.22 8.22 0 0 1 5.2-1.74c3.62 0 6.45 2.11 6.45 5.45 0 2.61-1.77 5.39-7.6 5.77zm-.09-10.21a7 7 0 0 0 -3.46 1.62 5 5 0 0 0 -1.89 3.79c0 1.62.83 2.79 1.55 2.79 1.24 0 2.9-2.61 3.69-4.25a7 7 0 0 0 .59-2.41 2.81 2.81 0 0 0 -.48-1.54z"/><path d="m266.78 10.35c1.31 2.11 3.93 3 7.63 3.41v.18a1 1 0 0 0 -.87.79c-3.73-.63-6-1.8-7.18-4.38h-.36c-.62 2-2.29 3.41-8.09 4.46l-.13-.34c4.79-1.07 6.49-2.32 7.12-4.12h-6.85l-.16-.48h7.17a10.39 10.39 0 0 0 .24-1.87l1.64.18c0 .2-.22.38-.61.41a12.25 12.25 0 0 1 -.2 1.28h5.87l.81-.88s.92.64 1.5 1.11c-.06.17-.22.25-.47.25zm-1.24-3v-1.97h-5.35l-.19-.47h5.5v-1.83h-6.21l-.17-.47h4.67a.76.76 0 0 1 -.33-.13 4.82 4.82 0 0 0 -1.46-2.25l.2-.12c2.65.89 2.48 2.4 1.78 2.5h3.48a18.14 18.14 0 0 0 1.48-2.61l1.59.5c-.08.18-.31.29-.69.28a16.35 16.35 0 0 1 -1.84 1.83h3.15l.77-.88s.9.62 1.46 1.09c0 .18-.22.26-.47.26h-6.35v1.83h3.83l.76-.84s.84.61 1.4 1c0 .18-.23.26-.48.26h-5.51v1.98h5.24l.75-.86s.9.63 1.46 1.07c-.05.18-.21.26-.47.26h-15l-.16-.47z"/><path d="m281.75 4.26c-.1.18-.27.24-.7.18a19.37 19.37 0 0 1 -1.31 1.9l.68.24c-.05.15-.23.26-.54.29v7.62a1.17 1.17 0 0 1 -.77.29h-.11v-7.49a18.31 18.31 0 0 1 -2.16 2.06l-.22-.19a21.51 21.51 0 0 0 3.64-5.55zm-.19-3.48c-.11.18-.27.24-.69.16a17 17 0 0 1 -3.94 3.84l-.2-.21a17.77 17.77 0 0 0 3.33-4.44zm-.72 11.22a17.88 17.88 0 0 0 1.62-6.37l1.56.24c0 .2-.23.36-.61.39a13.8 13.8 0 0 1 -2.27 5.88zm4.53-8v10.34c0 .15-.39.36-.75.36h-.2v-10.7h-2.81l-.14-.47h2.95v-3.24l1.58.15c-.05.22-.18.39-.63.45v2.59h1.41l.72-.74s.83.53 1.37 1c-.06.16-.22.24-.47.24zm1 1.53c2.94 3.45 1.79 6.19 1 5.2a12.22 12.22 0 0 0 -1.27-5.07zm0-4.78c2.54.94 1.73 2.43.86 1.86a4.14 4.14 0 0 0 -1.05-1.8zm5.63 3.66a16.68 16.68 0 0 1 1.43 1.1c-.06.18-.2.26-.45.26h-1.59v7.63c0 .71-.2 1.28-1.6 1.43a1 1 0 0 0 -.32-.67 3.51 3.51 0 0 0 -1.41-.32v-.26s1.64.11 2 .11.42-.08.42-.32v-7.6h-2.29l-.19-.49h3.19zm-3.24-2.27-.14-.49h2.38l.79-.86s.86.64 1.42 1.09c-.05.18-.21.26-.47.26z"/><path d="m308.65 4.72a3.15 3.15 0 0 1 1.22.45c.42.26.89.74.89 1.15 0 .26-.11.32-.78.5a37.38 37.38 0 0 0 -5.26 1.95c.06.9.06 2.15.06 2.67 0 .34-.18.54-.47.54a.49.49 0 0 1 -.52-.56c0-.35.09-1.31.09-2.23-1.77 1-3.06 2-3.06 3s1.24 1.34 2.95 1.34a33.45 33.45 0 0 0 4.59-.51c.58 0 .79.19.79.43s0 .39-.63.52a21.71 21.71 0 0 1 -4 .44c-3.3 0-4.39-.89-4.39-2.14s1.56-2.53 3.74-3.76c-.09-1.39-.45-1.91-1.42-1.91a5.27 5.27 0 0 0 -3 1.59c-.63.56-1.13 1.29-1.49 1.29a.54.54 0 0 1 -.56-.53c0-.44.68-.86 1.53-1.64a16.33 16.33 0 0 0 2.55-3 11.54 11.54 0 0 1 -1.27.08c-1.5 0-1.79-.24-2.56-1.52l.4-.23a2.54 2.54 0 0 0 2.34 1.05 8.79 8.79 0 0 0 1.56-.16 5.51 5.51 0 0 0 .61-1.53c.08-.31 0-.39-.34-.52a3.91 3.91 0 0 0 -1-.18v-.3a3.8 3.8 0 0 1 1-.13c.5 0 1.62.29 1.62.65s-.15.32-.35.71l-.59 1.09a18.37 18.37 0 0 0 2.5-.75c.79-.31.92-.44 1.19-.44s.69.12.69.38-.17.3-.47.43a21.59 21.59 0 0 1 -4.4 1.2 14.41 14.41 0 0 1 -1.8 2.37c-.07.1 0 .18.11.11a5.07 5.07 0 0 1 2-.53c1.14 0 1.82.71 2 2 1.49-.74 3.38-1.42 4.56-2 .28-.13.32-.27.07-.53a2.33 2.33 0 0 0 -.88-.55z"/><path d="m329.46 4s.93.66 1.53 1.13c-.06.18-.24.26-.49.26h-6.23c-1.15.75-2.39 1.46-3.69 2.14l-.14.5a59.94 59.94 0 0 0 7-1.41l1.08.93c-.15.13-.45.13-.83 0a67.26 67.26 0 0 1 -7.38.86c-.13.52-.27 1.06-.42 1.59h7.13l.58-.55 1.21.89a1.06 1.06 0 0 1 -.71.23c-.3 1.76-.92 3.3-1.71 3.81a3.67 3.67 0 0 1 -1.87.45.69.69 0 0 0 -.36-.65 8.34 8.34 0 0 0 -1.93-.39v-.29c.85.06 2.45.21 2.88.21a1.37 1.37 0 0 0 .78-.16 5.83 5.83 0 0 0 1.22-3.06h-7.38l-.27 1a1.62 1.62 0 0 1 -1.08 0c.32-1 .7-2.24 1-3.34a37.07 37.07 0 0 1 -4.92 2l-.14-.27a42.8 42.8 0 0 0 5.27-2.48c.09-.34.17-.65.22-.91l.79.32c.72-.42 1.41-.86 2.09-1.31h-7.92l-.16-.47h6.39v-2.29h-4.56l-.14-.47h4.7v-2.22l1.56.14c0 .2-.19.34-.57.41v1.67h2.32l.77-.88s.89.6 1.48 1.09a25.07 25.07 0 0 0 1.91-1.93l1.44.88c-.15.16-.34.19-.76.06a26.08 26.08 0 0 1 -4.15 3.42h3.68zm-6 .92a33.67 33.67 0 0 0 2.82-2.19.59.59 0 0 1 -.2 0h-4.08v2.18z"/><path d="m337 4.89c.27.57.61.93 1 .93a49 49 0 0 0 4.85-.93c.45-.11.59-.34.86-.34.51 0 1.48.54 1.48 1s-.54.39-1.17.83-2.65 2.12-3.6 3a5.06 5.06 0 0 1 1.06-.08 1.38 1.38 0 0 1 1.4.81 17.45 17.45 0 0 1 .6 1.81c.25 1 .54 1.25 1.48 1.25a18 18 0 0 0 3.09-.32c.67 0 1 .19 1 .48 0 .58-2.43.73-3.67.73-1.91 0-2.36-.39-2.68-1.72-.13-.5-.29-1.2-.45-1.78a1 1 0 0 0 -1-.76 2.61 2.61 0 0 0 -1.64.55 21.07 21.07 0 0 0 -3.1 3.14.81.81 0 0 1 -.63.33.44.44 0 0 1 -.47-.46c0-.5.42-.84.87-1.24.75-.67 2.23-1.9 3.19-2.74 1.38-1.2 3.15-2.81 3.92-3.62.23-.22.09-.37-.23-.3a33 33 0 0 0 -3.82 1c-.47.17-.65.41-1 .41a1.86 1.86 0 0 1 -1.57-1 1.69 1.69 0 0 1 0-.84zm1.81-4.11.26-.25a6.71 6.71 0 0 0 3.47 1.25c.45 0 .63-.05.92-.05.49 0 1.1.26 1.1.65 0 .2-.15.37-.58.37s-.52 0-1 0a21.29 21.29 0 0 0 -3.12.8l-.16-.38c.74-.24 1.69-.58 2.23-.81a5.46 5.46 0 0 1 -3.12-1.58z"/><path d="m357.17 1.7c.22.44.42.94.89.94a30.18 30.18 0 0 0 3.87-.74c.32-.1.39-.25.61-.25.47 0 1.35.62 1.35 1s-.36.26-1 .8c-.85.68-3.28 2.85-4.14 3.69-.11.1 0 .23.11.16a9.36 9.36 0 0 1 3.14-.59c2.31 0 4.31 1.39 4.25 3.6-.05 2-2 3.64-5.38 3.64-2 0-3.31-.71-3.31-1.81 0-.83.8-1.48 1.92-1.48a2.76 2.76 0 0 1 2.86 2.34c1.87-.44 2.85-1.6 2.88-2.88s-1.17-2.9-3.4-2.9c-2.63 0-4.47 1.41-6 3.16-.23.26-.36.34-.59.34s-.43-.21-.42-.59.17-.43.53-.79c3.08-2.88 6.21-5.59 6.91-6.68.13-.19 0-.26-.15-.21-.55.1-2.23.59-3 .85-.34.13-.57.37-.85.37a1.8 1.8 0 0 1 -1.4-1.06 2.2 2.2 0 0 1 0-.89zm4.25 11.44a2.14 2.14 0 0 0 -2.18-1.91c-.62 0-1.13.32-1.13.86s.77 1.08 2.59 1.08c.3 0 .49-.01.72-.03z"/><path d="m58.43 32.26c.63 3.07 2.5 6.43 7.94 8.7v.16c-.54.05-.93.19-1.09.7a12.09 12.09 0 0 1 -7.17-9.56c-.5 3.72-2.16 7.08-8.21 9.54l-.22-.29c5.32-2.51 6.86-5.66 7.32-9.25h-7l-.15-.46h7.24c.14-1.51.14-3.09.14-4.73l1.71.18c0 .21-.19.39-.61.44 0 1.41 0 2.78-.2 4.11h5.44l.88-1s1 .71 1.68 1.22c0 .17-.22.26-.47.26z"/><path d="m71.86 37.62 2.81-1.15.12.21c-1.29.73-3.09 1.78-5.38 3a.7.7 0 0 1 -.33.44l-.64-1.22c.5-.14 1.4-.47 2.48-.89v-5.61h-2.23l-.15-.48h2.38v-4.56l1.59.16c-.06.23-.2.39-.65.46v3.94h.72l.72-.86s.84.63 1.35 1.08c0 .18-.22.26-.47.26h-2.32zm12.75 2.58c.43.13.55.22.55.43 0 .49-.75.62-4.61.62h-2.79c-1.71 0-2.25-.29-2.25-1.33v-6.48l-2.3.78-.36-.39 2.66-.91v-4.63l1.61.16c0 .19-.22.37-.65.44v3.71l2.59-.88v-4.65l1.6.16c0 .21-.2.37-.65.44v3.73l2.67-.91h.14l.56-.58 1.24.9a1.25 1.25 0 0 1 -.7.23c0 4.26-.25 5.93-.83 6.5a2 2 0 0 1 -1.4.49.68.68 0 0 0 -.22-.62 2.26 2.26 0 0 0 -.93-.29v-.31c.45 0 1.09.1 1.38.1s.4 0 .52-.16c.33-.33.49-2 .56-5.81l-3 1v6.81c0 .11-.39.34-.75.34h-.2v-6.87l-2.59.89v6.63c0 .5.19.68 1.36.68h2.74c1.33 0 2.27 0 2.67-.05s.39-.09.48-.24a20.9 20.9 0 0 0 .61-2.49h.24z"/><path d="m95.06 40.21c4.38-.65 6.59-2.62 6.59-5.6s-2.43-4.69-5.42-4.69c-.22 0-.41 0-.63 0a2.82 2.82 0 0 1 .68 1.64 7.21 7.21 0 0 1 -.55 2.56c-.74 1.91-2.85 5.11-4.6 5.11-1.17 0-2.39-1.66-2.39-3.65a5.9 5.9 0 0 1 2.34-4.49 8.29 8.29 0 0 1 5.2-1.73c3.62 0 6.45 2.1 6.45 5.44 0 2.61-1.77 5.4-7.6 5.77zm-.06-10.21a7.06 7.06 0 0 0 -3.46 1.58 5.06 5.06 0 0 0 -1.89 3.8c0 1.62.83 2.78 1.55 2.78 1.24 0 2.9-2.61 3.69-4.24a7.1 7.1 0 0 0 .6-2.42 2.82 2.82 0 0 0 -.49-1.5z"/><path d="m111.51 29.57h-5l-.11-.47h5.13v-2.05l1.6.15c0 .21-.19.37-.63.42v1.48h4.07v-2.05l1.6.15c0 .21-.18.37-.61.42v1.48h2.9l.83-.93s.94.68 1.48 1.14c0 .17-.24.26-.49.26h-4.72v1.57c0 .11-.34.29-.81.31h-.18v-1.88h-4.07v1.63c0 .15-.46.29-.83.29h-.14zm9.72 4.68s.94.66 1.52 1.13c0 .18-.22.26-.47.26h-8.34a29 29 0 0 1 -2.82 4.36c2.34-.08 5.25-.22 8.3-.38a18.13 18.13 0 0 0 -3-2.44l.18-.17c6 2.41 5.55 5.41 4.18 4.63a5.55 5.55 0 0 0 -1.1-1.68c-2.81.32-6.55.69-11.67 1.11a.63.63 0 0 1 -.45.34l-.56-1.25c.83 0 2 0 3.51-.09a28.58 28.58 0 0 0 2.13-4.43h-5.92l-.17-.45h13.87zm-2.66-2 .79-.86s.9.62 1.44 1.09c0 .18-.23.26-.47.26h-11.68l-.15-.49z"/><path d="m130.27 31.27c-.11.18-.27.24-.71.18a19.32 19.32 0 0 1 -1.31 1.89l.68.24c-.05.15-.23.26-.54.3v7.61a1.14 1.14 0 0 1 -.77.29h-.16v-7.48a18.31 18.31 0 0 1 -2.16 2.06l-.22-.2a21.21 21.21 0 0 0 3.64-5.54zm-.2-3.49c-.11.18-.27.25-.69.17a16.8 16.8 0 0 1 -3.94 3.84l-.2-.21a17.17 17.17 0 0 0 3.33-4.45zm-.72 11.22a17.82 17.82 0 0 0 1.65-6.36l1.57.25c-.06.19-.24.35-.62.39a13.85 13.85 0 0 1 -2.27 5.88zm4.53-8v10.35c0 .14-.39.35-.75.35h-.2v-10.7h-2.81l-.14-.47h3v-3.23l1.59.14c-.06.23-.18.39-.64.46v2.59h1.41l.72-.75s.83.54 1.37 1c-.06.16-.22.24-.47.24zm1 1.52c2.93 3.45 1.78 6.19 1 5.2a12.48 12.48 0 0 0 -1.28-5.07zm0-4.78c2.54.94 1.73 2.43.87 1.87a4.22 4.22 0 0 0 -1.08-1.75zm5.56 3.71a17.76 17.76 0 0 1 1.43 1.11c-.06.17-.2.25-.45.25h-1.59v7.64c0 .71-.19 1.28-1.6 1.42a.91.91 0 0 0 -.32-.66 3.47 3.47 0 0 0 -1.41-.33v-.26s1.64.12 2 .12.42-.08.42-.33v-7.6h-2.29l-.14-.48h3.18zm-3.24-2.27-.14-.48h2.38l.79-.86s.86.63 1.42 1.09c-.05.17-.21.25-.47.25z"/><path d="m152.86 28.82a1.11 1.11 0 0 1 -.76.19 11.64 11.64 0 0 1 -7.8 6.71l-.16-.27a11.29 11.29 0 0 0 6.86-6.55h-3c-.16.21-.34.42-.52.63 2.59.36 2.23 1.92 1.3 1.54a4.21 4.21 0 0 0 -1.57-1.26 10.71 10.71 0 0 1 -1.1 1c2.67.68 2.09 2.28 1.19 1.8a4.09 4.09 0 0 0 -1.41-1.61 9.88 9.88 0 0 1 -1.5.94l-.25-.21a11.82 11.82 0 0 0 3.86-4.73l1.46.56c-.08.18-.29.31-.67.26-.13.23-.27.44-.43.67h2.64l.72-.6zm-2.67 9.18c-.12.16-.27.25-.66.16a12.46 12.46 0 0 1 -4.65 3l-.2-.21a12.14 12.14 0 0 0 4-3.65zm7.73-2.72s.84.58 1.38 1c0 .18-.21.24-.45.24h-6v3.84c0 .73-.22 1.28-1.73 1.41a.87.87 0 0 0 -.38-.66 5 5 0 0 0 -1.56-.34v-.25s1.89.12 2.28.12.4-.09.4-.3v-3.79h-6.32l-.15-.47h11.74zm-9.22-1.56h5.49l.69-.77s.82.55 1.36 1c-.05.18-.21.26-.46.26h-6.94zm11.36-4.86c-.14.13-.36.15-.72.16a15.52 15.52 0 0 1 -3 3.1 13.16 13.16 0 0 0 4.36 2.35v.16a1.08 1.08 0 0 0 -.95.67 11.49 11.49 0 0 1 -7-7.78l.34-.15a10.46 10.46 0 0 0 3 4.52 17.94 17.94 0 0 0 2.06-3h-3.57l-.16-.47h3.73l.72-.64zm-5.27 8.77c5.29 1.36 5 3.94 3.67 3.37a11 11 0 0 0 -3.84-3.22z"/><path d="m169.72 28.09c-.09.2-.32.33-.7.29a14.64 14.64 0 0 1 -5.69 6.62l-.23-.2a16.58 16.58 0 0 0 5-7.31zm3.28 7.84c5.94 3.5 5.33 6.57 3.94 5.64a8 8 0 0 0 -1-1.94c-2.72.4-6.15.87-10.76 1.34a.75.75 0 0 1 -.47.33l-.58-1.3c.72 0 1.75-.06 3-.13a41.53 41.53 0 0 0 2.85-7.44l1.73.43c-.08.19-.27.32-.69.32a34.7 34.7 0 0 1 -3.42 6.68c2.27-.13 5.17-.33 8.14-.56a23.67 23.67 0 0 0 -2.93-3.22zm.46-8.65a14.56 14.56 0 0 0 6.11 6.72v.16a1.15 1.15 0 0 0 -1 .73 14.86 14.86 0 0 1 -5.42-7.46z"/><path d="m197.82 40.58c.53.54.58.75.44.91-.36.47-1.37 0-2.18-.53-2.94-2-4.29-5.61-4.76-9.94h-9l-.16-.47h9.18c-.11-1.11-.17-2.28-.17-3.46l1.73.19c0 .18-.19.37-.64.44a26.76 26.76 0 0 0 .09 2.83h3.78l.79-.89s.92.63 1.49 1.12c-.05.16-.23.24-.48.24h-5.55c.38 3.8 1.55 7.28 4.27 9 .29.26.41.24.58-.08a15 15 0 0 0 .7-1.79h.25zm-10.57-1.32 4.15-1 .09.29c-1.93.65-4.54 1.52-8 2.54a.7.7 0 0 1 -.36.39l-.72-1.1c.81-.15 2.22-.47 3.91-.88v-5.14h-3.24l-.14-.45h5.94l.75-.84s.87.6 1.41 1c-.06.16-.2.24-.45.24h-3.32zm6.41-11.8c3.7.53 3.32 2.45 2.22 2a7.5 7.5 0 0 0 -2.4-1.85z"/><path d="m218.63 29.32-1.74.18-3.32 11.21h-.64l-3.44-9.83-3.32 9.83h-.61l-3.56-11.23-1.69-.16v-.5h4.95v.5l-1.91.18 2.76 9.12 3.17-9.12-1.95-.18v-.5h4.93v.5l-2 .18 3.15 9.25 2.66-9.23-1.87-.2v-.5h4.41z"/><path d="m230.71 37.62-.17 3h-9.83v-.51l1.93-.17c0-1.55 0-3.16 0-4.74v-.91c0-1.61 0-3.19 0-4.77l-1.93-.16v-.5h9.51l.13 2.93h-.8l-.43-2.31h-5.12v4.87h3.26l.23-1.71h.67v4h-.67l-.23-1.7h-3.26v5h5.43l.44-2.32z"/><path d="m238.57 28.82c2.76 0 4.18 1.13 4.18 2.82 0 1.26-.92 2.4-3.1 2.79 2.67.27 3.77 1.47 3.77 3 0 1.67-1.44 3.17-4.9 3.17h-5.19v-.51l1.93-.17c0-1.57 0-3.16 0-4.76v-.91c0-1.59 0-3.17 0-4.75l-1.93-.16v-.5zm-1.94.58v4.77h1.19c2.47 0 3.67-.88 3.67-2.5s-1-2.27-3.33-2.27zm1.64 10.6c2.46 0 3.78-.93 3.78-2.6s-1.25-2.62-4.13-2.62h-1.31v5.22z"/><path d="m247.12 31c.29.37.63 1 1.24 1 1.14 0 9.33-.81 10.61-.94.29 0 .43-.28.7-.28.47 0 1.69.86 1.69 1.26s-.65.28-1.11.65a47.1 47.1 0 0 1 -5.25 4.14 4 4 0 0 1 1.71 2.59.47.47 0 0 1 -.5.47c-.54 0-.47-1.07-2.58-3.06a16.51 16.51 0 0 0 -2.61-2l.25-.31a15.21 15.21 0 0 1 3.21 1.9 25.92 25.92 0 0 0 4.83-4.42c.13-.18.07-.27-.14-.27-1.8.06-8 .79-9.62 1-.41.07-.74.36-1.08.36a2.26 2.26 0 0 1 -1.46-1 2.48 2.48 0 0 1 -.27-1z"/><path d="m276.48 31.77c.51-.05.6-.37.89-.37s1.27.69 1.27 1-.39.27-.46.69a17.84 17.84 0 0 1 -2 6.39 2.17 2.17 0 0 1 -1.71 1.1c-.26 0-.42-.13-.49-.44-.18-.6-.81-.84-1.82-1.49l.23-.32c.71.29 1.63.71 2 .84s.66.14.93-.15c1.17-1.28 1.91-5.36 1.91-6.4 0-.11-.07-.18-.21-.18-.92 0-2.63.2-3.75.34a12.9 12.9 0 0 1 -7.2 8.58l-.31-.34c4.5-2.86 5.82-5.85 6.5-8.11-1.2.2-3 .49-3.49.59s-.61.32-.95.32-1.14-.74-1.26-1.08a2.25 2.25 0 0 1 -.11-1l.37-.08c.22.43.47 1 .94 1s2.68-.21 4.68-.44a22.57 22.57 0 0 0 .44-2.72c0-.31 0-.41-.35-.51a6.41 6.41 0 0 0 -1.13-.16v-.37a8 8 0 0 1 1.24-.15c.61 0 1.71.56 1.71.91s-.38.34-.48.94c-.09.44-.26 1.27-.42 2zm.78-2.71a7 7 0 0 1 2 1.11c.47.38.64.66.64 1a.36.36 0 0 1 -.37.39c-.29 0-.51-.4-.87-.81a7 7 0 0 0 -1.66-1.38zm1.54-1a6.62 6.62 0 0 1 2 1c.47.35.69.68.69 1a.37.37 0 0 1 -.42.39c-.27 0-.45-.42-.84-.81a8.15 8.15 0 0 0 -1.66-1.26z"/><path d="m285.39 32.87.2-.37a15.62 15.62 0 0 1 2.39.76c1.06.42 1.62 1 1.62 1.52a.43.43 0 0 1 -.45.43c-.48 0-.75-.57-1.69-1.19a13.67 13.67 0 0 0 -2.07-1.15zm13-.86.44.25c-2.09 3.24-5.85 6-9.83 7.9-.33.18-.49.57-.94.57a3.82 3.82 0 0 1 -2-1.13 2.47 2.47 0 0 1 -.38-1l.29-.16c.52.57 1.06 1.09 1.64 1.09 1.07.02 7.54-3.32 10.81-7.53zm-10.58-2.2.21-.39a15.33 15.33 0 0 1 2.2.79c1.22.6 1.64 1.14 1.64 1.61a.43.43 0 0 1 -.45.45c-.41 0-.78-.65-1.73-1.33a15 15 0 0 0 -1.84-1.13zm8.86.71a8.83 8.83 0 0 0 -1.64-1.41l.25-.31a7.79 7.79 0 0 1 2 1.11c.47.42.65.69.65 1a.38.38 0 0 1 -.41.39c-.27 0-.45-.36-.82-.78zm1.83-1.23a9.22 9.22 0 0 0 -1.59-1.29l.25-.29a7.8 7.8 0 0 1 2 1c.47.37.67.66.67 1a.37.37 0 0 1 -.39.39c-.31-.03-.44-.4-.91-.81z"/><path d="m317.58 31.09.43.26c-2.18 3.43-5.56 6-9.45 8.23-.29.16-.51.55-.87.55a3.55 3.55 0 0 1 -2-1.18 3.16 3.16 0 0 1 -.36-1l.29-.18a2.75 2.75 0 0 0 1.69 1.09c1.23.04 7.69-4.24 10.27-7.77zm-11.81-1.49c2 .57 4.32 1.7 4.32 2.85a.46.46 0 0 1 -.49.5c-.23 0-.43-.16-.9-.63a12.47 12.47 0 0 0 -3.17-2.32z"/></g></svg>