<?xml version="1.0" encoding="UTF-8" standalone="no"?>
<svg
   xmlns:dc="http://purl.org/dc/elements/1.1/"
   xmlns:cc="http://creativecommons.org/ns#"
   xmlns:rdf="http://www.w3.org/1999/02/22-rdf-syntax-ns#"
   xmlns:svg="http://www.w3.org/2000/svg"
   xmlns="http://www.w3.org/2000/svg"
   xmlns:sodipodi="http://sodipodi.sourceforge.net/DTD/sodipodi-0.dtd"
   xmlns:inkscape="http://www.inkscape.org/namespaces/inkscape"
   viewBox="0 0 23.530001 24.898"
   version="1.1"
   id="svg24"
   sodipodi:docname="g.svg"
   width="23.530001"
   height="24.898001"
   inkscape:version="0.92.4 (f8dce91, 2019-08-02)">
  <metadata
     id="metadata30">
    <rdf:RDF>
      <cc:Work
         rdf:about="">
        <dc:format>image/svg+xml</dc:format>
        <dc:type
           rdf:resource="http://purl.org/dc/dcmitype/StillImage" />
        <dc:title></dc:title>
      </cc:Work>
    </rdf:RDF>
  </metadata>
  <defs
     id="defs28" />
  <sodipodi:namedview
     pagecolor="#ffffff"
     bordercolor="#666666"
     borderopacity="1"
     objecttolerance="10"
     gridtolerance="10"
     guidetolerance="10"
     inkscape:pageopacity="0"
     inkscape:pageshadow="2"
     inkscape:window-width="1853"
     inkscape:window-height="1025"
     id="namedview26"
     showgrid="false"
     inkscape:zoom="16"
     inkscape:cx="18.239599"
     inkscape:cy="13.227489"
     inkscape:window-x="67"
     inkscape:window-y="27"
     inkscape:window-maximized="1"
     inkscape:current-layer="svg24" />
  <path
     d="m 19.482865,20.871673 v -6.686 h -5.684 v -2.77 h 9.129 v 10.69 c -1.343333,0.922 -2.812948,1.567313 -4.432281,2.045313 -1.619333,0.466667 -3.347667,0.7 -5.185,0.7 -4.019333,0 -7.1659997,-1.133667 -9.4399997,-3.401 -2.262,-2.279333 -3.39299994,-5.447667 -3.39299994,-9.505 0,-4.068667 1.15836444,-6.2491499 3.42036444,-8.5164832 2.274,-2.28 5.4206667,-3.42000008 9.4399992,-3.42000008 1.676667,0 3.267,0.2 4.771,0.6 1.516,0.40000008 2.911333,0.98933338 4.186,1.76800008 v 3.585 c -1.286,-1.056 -2.652667,-1.8506667 -4.1,-2.384 -1.446667,-0.5333333 -2.968,-0.8 -4.564,-0.8 -3.146667,0 -5.5123325,0.85 -7.0969992,2.55 -1.5733333,1.7013333 -2.3873645,3.2488162 -2.3873645,6.6174832 0,3.358 0.7866667,5.887332 2.36,7.588 1.5846667,1.701332 3.9386147,2.606687 7.0852817,2.606687 1.228667,0 2.325333,-0.1 3.289999,-0.3 0.964667,-0.212 1.831333,-0.534667 2.600001,-0.968 z"
     id="path22"
     inkscape:connector-curvature="0"
     sodipodi:nodetypes="cccccccscscsccccscscsccc" />
</svg>
